<svg width="1em" height="1em" viewBox="0 0 16 16" fill="none" xmlns="http://www.w3.org/2000/svg">
  <path fill-rule="evenodd" clip-rule="evenodd"
    d="M6.352 1.14533C6.42208 1.21539 6.46977 1.3047 6.48899 1.40191C6.50822 1.49912 6.49813 1.59986 6.46 1.69133C6.15522 2.4228 5.99885 3.20756 6 3.99999C6 5.59129 6.63214 7.11741 7.75736 8.24263C8.88258 9.36785 10.4087 9.99999 12 9.99999C12.7924 10.0011 13.5772 9.84478 14.3087 9.53999C14.4001 9.50193 14.5007 9.49185 14.5978 9.51105C14.695 9.53025 14.7842 9.57785 14.8543 9.64783C14.9243 9.7178 14.972 9.807 14.9913 9.90412C15.0106 10.0012 15.0006 10.1019 14.9627 10.1933C14.4307 11.4688 13.5332 12.5584 12.3831 13.3247C11.2331 14.0911 9.88199 14.5 8.5 14.5C4.634 14.5 1.5 11.3667 1.5 7.49999C1.5 4.58799 3.278 2.09199 5.80667 1.03733C5.89805 0.999339 5.99865 0.989324 6.09573 1.00855C6.1928 1.02778 6.28199 1.07538 6.352 1.14533Z"
    fill="currentColor" />
</svg>
  