<svg width="32" height="32" viewBox="0 0 32 32" fill="none" xmlns="http://www.w3.org/2000/svg">
  <rect x="1" y="1" width="30" height="30" rx="15" fill="#213147" />
  <rect x="1" y="1" width="30" height="30" rx="15" stroke="#F6F6FE" stroke-width="2" />
  <path
    d="M6.29663 11.3565V20.6439C6.29663 21.241 6.60937 21.7811 7.1306 22.0844L15.1765 26.7281C15.6883 27.0219 16.3232 27.0219 16.835 26.7281L24.8809 22.0844C25.3926 21.7906 25.7148 21.241 25.7148 20.6439V11.3565C25.7148 10.7595 25.4021 10.2193 24.8809 9.91603L16.835 5.27234C16.3232 4.97856 15.6883 4.97856 15.1765 5.27234L7.1306 9.91603C6.61885 10.2098 6.30611 10.7595 6.30611 11.3565H6.29663Z"
    fill="#213147" />
  <path
    d="M17.7554 17.801L16.6087 20.9474C16.5803 21.0327 16.5803 21.1274 16.6087 21.2222L18.5799 26.6335L20.8639 25.3162L18.125 17.801C18.0587 17.6304 17.8218 17.6304 17.7554 17.801Z"
    fill="#12AAFF" />
  <path
    d="M20.0574 12.5127C19.9911 12.3421 19.7541 12.3421 19.6878 12.5127L18.5411 15.659C18.5127 15.7443 18.5127 15.8391 18.5411 15.9339L21.7727 24.7948L24.0567 23.4775L20.0574 12.5222V12.5127Z"
    fill="#12AAFF" />
  <path
    d="M16.0021 5.62298C16.059 5.62298 16.1159 5.64193 16.1632 5.67036L24.8631 10.6931C24.9673 10.75 25.0242 10.8637 25.0242 10.9774V21.023C25.0242 21.1367 24.9578 21.2504 24.8631 21.3073L16.1632 26.3301C16.1159 26.3585 16.059 26.3774 16.0021 26.3774C15.9453 26.3774 15.8884 26.3585 15.841 26.3301L7.14122 21.3073C7.03697 21.2504 6.98011 21.1367 6.98011 21.023V10.968C6.98011 10.8542 7.04645 10.7405 7.14122 10.6837L15.841 5.66088C15.8884 5.63245 15.9453 5.6135 16.0021 5.6135V5.62298ZM16.0021 4.15405C15.6894 4.15405 15.3861 4.22987 15.1018 4.39098L6.40202 9.41374C5.84288 9.73596 5.50171 10.3235 5.50171 10.968V21.0135C5.50171 21.6579 5.84288 22.2455 6.40202 22.5677L15.1018 27.5905C15.3767 27.7516 15.6894 27.8274 16.0021 27.8274C16.3149 27.8274 16.6181 27.7516 16.9024 27.5905L25.6023 22.5677C26.1614 22.2455 26.5026 21.6579 26.5026 21.0135V10.968C26.5026 10.3235 26.1614 9.73596 25.6023 9.41374L16.893 4.39098C16.6181 4.22987 16.3054 4.15405 15.9927 4.15405H16.0021Z"
    fill="#9DCCED" />
  <path d="M10.2388 24.8041L11.0443 22.6055L12.6554 23.9417L11.1486 25.3253L10.2388 24.8041Z"
    fill="#213147" />
  <path
    d="M15.2633 10.257H13.0551C12.894 10.257 12.7424 10.3613 12.6855 10.5129L7.95654 23.4773L10.2405 24.7946L15.4528 10.5129C15.5002 10.3802 15.4054 10.2476 15.2727 10.2476L15.2633 10.257Z"
    fill="white" />
  <path
    d="M19.13 10.257H16.9218C16.7607 10.257 16.6091 10.3613 16.5522 10.5129L11.1504 25.3159L13.4343 26.6332L19.31 10.5129C19.3574 10.3802 19.2626 10.2476 19.13 10.2476V10.257Z"
    fill="white" />
</svg>
  