<svg width="28" height="28" viewBox="0 0 28 28" fill="none" xmlns="http://www.w3.org/2000/svg">
  <rect width="28" height="28" rx="14" fill="#213147" />
  <path
    d="M4.29688 9.35604V18.6434C4.29688 19.2405 4.60961 19.7807 5.13084 20.0839L13.1768 24.7276C13.6885 25.0214 14.3235 25.0214 14.8352 24.7276L22.8811 20.0839C23.3929 19.7901 23.7151 19.2405 23.7151 18.6434V9.35604C23.7151 8.75899 23.4024 8.21881 22.8811 7.91554L14.8352 3.27185C14.3235 2.97807 13.6885 2.97807 13.1768 3.27185L5.13084 7.91554C4.61909 8.20933 4.30635 8.75899 4.30635 9.35604H4.29688Z"
    fill="#213147" />
  <path
    d="M15.7554 15.8005L14.6087 18.9469C14.5803 19.0322 14.5803 19.1269 14.6087 19.2217L16.5799 24.633L18.8639 23.3157L16.125 15.8005C16.0587 15.63 15.8218 15.63 15.7554 15.8005Z"
    fill="#12AAFF" />
  <path
    d="M18.0572 10.5125C17.9908 10.3419 17.7539 10.3419 17.6876 10.5125L16.5409 13.6588C16.5124 13.7441 16.5124 13.8389 16.5409 13.9336L19.7725 22.7946L22.0564 21.4773L18.0572 10.5219V10.5125Z"
    fill="#12AAFF" />
  <path
    d="M14.0019 3.62176C14.0588 3.62176 14.1156 3.64071 14.163 3.66914L22.8628 8.69191C22.9671 8.74877 23.0239 8.86249 23.0239 8.97622V19.0218C23.0239 19.1355 22.9576 19.2492 22.8628 19.3061L14.163 24.3288C14.1156 24.3573 14.0588 24.3762 14.0019 24.3762C13.945 24.3762 13.8882 24.3573 13.8408 24.3288L5.14097 19.3061C5.03673 19.2492 4.97986 19.1355 4.97986 19.0218V8.96674C4.97986 8.85302 5.0462 8.73929 5.14097 8.68243L13.8408 3.65966C13.8882 3.63123 13.945 3.61228 14.0019 3.61228V3.62176ZM14.0019 2.15283C13.6892 2.15283 13.3859 2.22865 13.1016 2.38976L4.40177 7.41252C3.84263 7.73474 3.50146 8.32231 3.50146 8.96674V19.0123C3.50146 19.6567 3.84263 20.2443 4.40177 20.5665L13.1016 25.5893C13.3764 25.7504 13.6892 25.8262 14.0019 25.8262C14.3146 25.8262 14.6179 25.7504 14.9022 25.5893L23.602 20.5665C24.1612 20.2443 24.5023 19.6567 24.5023 19.0123V8.96674C24.5023 8.32231 24.1612 7.73474 23.602 7.41252L14.8927 2.38976C14.6179 2.22865 14.3052 2.15283 13.9924 2.15283H14.0019Z"
    fill="#9DCCED" />
  <path d="M8.23877 22.8044L9.04431 20.6057L10.6554 21.942L9.14855 23.3256L8.23877 22.8044Z"
    fill="#213147" />
  <path
    d="M13.2628 8.25752H11.0546C10.8935 8.25752 10.7419 8.36177 10.685 8.5134L5.95605 21.4778L8.23999 22.7951L13.4523 8.5134C13.4997 8.38072 13.4049 8.24805 13.2722 8.24805L13.2628 8.25752Z"
    fill="white" />
  <path
    d="M17.13 8.25752H14.9218C14.7607 8.25752 14.6091 8.36177 14.5522 8.5134L9.15039 23.3164L11.4343 24.6336L17.31 8.5134C17.3574 8.38072 17.2626 8.24805 17.13 8.24805V8.25752Z"
    fill="white" />
</svg>
  