<svg width="33" height="32" viewBox="0 0 33 32" fill="none" xmlns="http://www.w3.org/2000/svg">
  <rect x="1.33325" y="1" width="30" height="30" rx="15" fill="white" />
  <rect x="1.33325" y="1" width="30" height="30" rx="15" stroke="#F6F6FE" stroke-width="2" />
  <path
    d="M25.8876 18.738C25.8882 19.6381 25.7147 20.5161 25.3707 21.3472C25.0261 22.1795 24.5288 22.9231 23.8935 23.5591C23.2563 24.1957 22.512 24.6923 21.6809 25.0363C20.851 25.3795 19.9749 25.5544 19.0772 25.5544H19.0723H19.0444C17.6064 25.5544 16.1793 25.0857 15.0226 24.2337C13.8582 23.3761 12.9835 22.1421 12.5482 20.7175C12.3531 20.0751 12.2543 19.4108 12.2556 18.7406V13.7142C12.2563 13.2354 12.4425 12.7856 12.7813 12.4468C13.1202 12.1085 13.5701 11.9222 14.0477 11.9216C14.5259 11.9229 14.9756 12.1103 15.3139 12.448C15.6516 12.7862 15.8385 13.236 15.8397 13.7136V18.7386C15.8403 19.6015 16.1774 20.4134 16.7893 21.0234C17.2428 21.4757 17.8148 21.7804 18.4432 21.9039C19.0709 22.0287 19.7164 21.9647 20.3088 21.7197C20.9004 21.4745 21.4015 21.064 21.7581 20.5313C22.1154 19.9992 22.3047 19.3797 22.3061 18.738V8.6898C22.3061 8.45354 22.3517 8.22233 22.4422 8.00379C22.5321 7.78589 22.6627 7.59015 22.8305 7.42293C22.9978 7.25633 23.1929 7.12521 23.4114 7.03463C23.8479 6.85474 24.3452 6.85411 24.7823 7.03463C25.0008 7.12521 25.1959 7.25633 25.3631 7.42293C25.5304 7.59015 25.6608 7.78589 25.7515 8.00379C25.842 8.22233 25.8876 8.45354 25.8876 8.6898V18.738ZM11.7634 11.4281C11.1528 12.0387 10.8157 12.8509 10.8151 13.7136V23.7624C10.8151 24.2406 10.6289 24.6903 10.29 25.0294C9.61345 25.7071 8.43268 25.7071 7.75551 25.0294C7.41725 24.6903 7.231 24.2406 7.231 23.7624V13.7142C7.23228 12.0806 7.82075 10.5002 8.88813 9.2637C9.95614 8.02723 11.4334 7.21516 13.0493 6.97573C13.3818 6.92631 13.7157 6.90161 14.0483 6.90161C15.3323 6.90161 16.5992 7.26521 17.6951 7.95882C18.2126 8.2863 18.6795 8.67967 19.0861 9.1256C19.09 9.12181 19.0925 9.11738 19.0964 9.11357L19.1059 9.14968C19.7741 9.88891 20.2784 10.7706 20.5716 11.7372L20.5995 11.8291C20.7775 12.4422 20.8674 13.0763 20.868 13.7136V18.738C20.868 19.0934 20.7637 19.4373 20.5659 19.7325C20.3683 20.0277 20.0909 20.2557 19.7627 20.3926C19.5493 20.4812 19.3238 20.523 19.0964 20.5256V20.5288C19.0875 20.5288 19.0792 20.5262 19.0703 20.5262C18.9563 20.5262 18.8417 20.5185 18.7277 20.4958C18.6617 20.4831 18.5978 20.4628 18.5344 20.4426V20.4337C18.4914 20.4197 18.4471 20.4128 18.4052 20.395C18.077 20.2583 17.7996 20.0302 17.602 19.735C17.4044 19.4392 17.2999 19.0952 17.2999 18.7406V14.1899L17.2985 13.713C17.2973 13.2842 17.2137 12.8667 17.0495 12.4727C16.8849 12.0781 16.6474 11.7246 16.3439 11.4225C16.0404 11.1209 15.6858 10.8859 15.2892 10.7231C14.8934 10.5603 14.4727 10.4729 14.0483 10.4805C13.1856 10.4812 12.3741 10.8182 11.7634 11.4281ZM26.3798 6.40563C25.7691 5.79563 24.9584 5.45927 24.0963 5.45801C23.2341 5.46054 22.4226 5.79753 21.8133 6.40753C21.2051 7.01752 20.8694 7.8277 20.868 8.6898V9.05276C19.9597 7.72572 18.6789 6.68688 17.1724 6.07118C15.2955 5.30598 13.2089 5.25341 11.2946 5.92866C9.67678 6.50255 8.29774 7.54645 7.30701 8.94761C6.31629 10.3494 5.79179 11.9976 5.79053 13.7136V23.7624C5.79053 24.6257 6.12689 25.4372 6.73755 26.0478C7.34756 26.6586 8.15966 26.9949 9.02306 26.9949C9.88646 26.9949 10.6979 26.6586 11.3086 26.0478C11.9192 25.4372 12.2556 24.6257 12.2556 23.7624V23.402C13.1646 24.7285 14.4443 25.7672 15.9505 26.3817C17.8263 27.1468 19.9122 27.197 21.8259 26.5236C23.443 25.9504 24.8208 24.9057 25.8122 23.5046C26.8023 22.1028 27.3269 20.4559 27.3281 18.7406V8.68917C27.3269 7.82707 26.9898 7.01626 26.3798 6.40563Z"
    fill="url(#paint0_linear_521_1986)" />
  <defs>
    <linearGradient id="paint0_linear_521_1986" x1="4.84033" y1="26.8357" x2="27.2046" y2="2.87692"
      gradientUnits="userSpaceOnUse">
      <stop offset="0.05" stop-color="white" />
      <stop offset="0.38" stop-color="#A7B3FF" />
      <stop offset="1" stop-color="#74A4FF" />
    </linearGradient>
  </defs>
</svg>
  