<svg width="29" height="28" viewBox="0 0 29 28" fill="none" xmlns="http://www.w3.org/2000/svg">
  <rect x="0.333252" width="28" height="28" rx="14" fill="#020418" />
  <path
    d="M21.1647 15.958C21.1651 16.6016 21.0411 17.2294 20.7951 17.8237C20.5487 18.4188 20.1931 18.9505 19.7389 19.4052C19.2832 19.8605 18.751 20.2155 18.1567 20.4615C17.5634 20.7069 16.9369 20.832 16.2951 20.832H16.2915H16.2716C15.2433 20.832 14.223 20.4968 13.3959 19.8876C12.5633 19.2744 11.9378 18.3921 11.6266 17.3734C11.4871 16.9141 11.4165 16.4391 11.4174 15.9598V12.3658C11.4179 12.0235 11.551 11.7019 11.7933 11.4596C12.0356 11.2177 12.3573 11.0845 12.6988 11.0841C13.0407 11.085 13.3623 11.219 13.6042 11.4605C13.8456 11.7023 13.9793 12.0239 13.9801 12.3654V15.9584C13.9805 16.5754 14.2216 17.156 14.6591 17.5921C14.9834 17.9155 15.3924 18.1334 15.8417 18.2217C16.2905 18.311 16.7521 18.2652 17.1757 18.09C17.5987 17.9147 17.957 17.6212 18.212 17.2403C18.4674 16.8598 18.6028 16.4169 18.6038 15.958V8.77327C18.6038 8.60433 18.6364 8.43901 18.7011 8.28275C18.7654 8.12694 18.8588 7.98698 18.9788 7.86741C19.0984 7.74829 19.2379 7.65454 19.3941 7.58977C19.7062 7.46114 20.0618 7.46069 20.3743 7.58977C20.5306 7.65454 20.6701 7.74829 20.7896 7.86741C20.9093 7.98698 21.0025 8.12694 21.0673 8.28275C21.1321 8.43901 21.1647 8.60433 21.1647 8.77327V15.958ZM11.0655 10.7313C10.6288 11.1679 10.3879 11.7485 10.3874 12.3654V19.5506C10.3874 19.8926 10.2542 20.2141 10.0119 20.4565C9.52818 20.9412 8.68389 20.9412 8.1997 20.4565C7.95783 20.2141 7.82466 19.8926 7.82466 19.5506V12.3658C7.82557 11.1978 8.24635 10.0677 9.00955 9.18362C9.77321 8.29951 10.8295 7.71885 11.9849 7.54765C12.2227 7.51232 12.4614 7.49466 12.6992 7.49466C13.6173 7.49466 14.5232 7.75464 15.3068 8.25059C15.6768 8.48475 16.0107 8.76602 16.3014 9.08487C16.3042 9.08216 16.3059 9.07899 16.3087 9.07627L16.3155 9.10209C16.7934 9.63066 17.1539 10.2611 17.3636 10.9523L17.3835 11.018C17.5108 11.4564 17.5751 11.9098 17.5755 12.3654V15.958C17.5755 16.2122 17.5009 16.458 17.3595 16.6691C17.2182 16.8802 17.0198 17.0432 16.7852 17.1411C16.6326 17.2044 16.4714 17.2344 16.3087 17.2362V17.2385C16.3024 17.2385 16.2965 17.2366 16.2901 17.2366C16.2086 17.2366 16.1266 17.2312 16.0451 17.2149C15.9979 17.2058 15.9523 17.1913 15.9069 17.1769V17.1705C15.8761 17.1605 15.8445 17.1556 15.8145 17.1428C15.5799 17.0451 15.3815 16.882 15.2402 16.6709C15.0989 16.4594 15.0242 16.2135 15.0242 15.9598V12.706L15.0232 12.365C15.0224 12.0584 14.9626 11.7598 14.8452 11.4781C14.7275 11.196 14.5577 10.9432 14.3407 10.7272C14.1237 10.5116 13.8701 10.3436 13.5865 10.2272C13.3035 10.1108 13.0027 10.0483 12.6992 10.0537C12.0824 10.0541 11.5021 10.2951 11.0655 10.7313ZM21.5166 7.14002C21.0799 6.70385 20.5002 6.46334 19.8838 6.46244C19.2674 6.46425 18.6871 6.70521 18.2514 7.14137C17.8165 7.57754 17.5765 8.15684 17.5755 8.77327V9.03279C16.926 8.08392 16.0102 7.34112 14.9331 6.90087C13.591 6.35373 12.0991 6.31615 10.7303 6.79896C9.57346 7.20932 8.58741 7.95573 7.87901 8.9576C7.17061 9.95993 6.79558 11.1385 6.79468 12.3654V19.5506C6.79468 20.1679 7.03519 20.7482 7.47183 21.1848C7.908 21.6214 8.48868 21.8619 9.10604 21.8619C9.72339 21.8619 10.3036 21.6214 10.7402 21.1848C11.1769 20.7482 11.4174 20.1679 11.4174 19.5506V19.2929C12.0674 20.2414 12.9823 20.9841 14.0594 21.4235C15.4006 21.9706 16.8921 22.0064 18.2605 21.525C19.4167 21.1151 20.4019 20.3681 21.1107 19.3663C21.8187 18.364 22.1938 17.1864 22.1947 15.9598V8.77281C22.1938 8.15638 21.9528 7.57663 21.5166 7.14002Z"
    fill="url(#paint0_linear_116_442)" />
  <defs>
    <linearGradient id="paint0_linear_116_442" x1="6.11526" y1="21.7481" x2="22.1064" y2="4.61688"
      gradientUnits="userSpaceOnUse">
      <stop offset="0.05" stop-color="white" />
      <stop offset="0.38" stop-color="#A7B3FF" />
      <stop offset="1" stop-color="#74A4FF" />
    </linearGradient>
  </defs>
</svg>
  