<svg width="48" height="48" viewBox="0 0 48 48" fill="none" xmlns="http://www.w3.org/2000/svg">
  <path
    d="M24 48C37.3001 48 48 37.3001 48 24C48 10.6999 37.3001 0 24 0C10.6999 0 0 10.6999 0 24C0 37.3001 10.6999 48 24 48Z"
    fill="#2775CA" />
  <path
    d="M30.5996 27.8C30.5996 24.3 28.4996 23.1 24.2996 22.6001C21.2996 22.2 20.6996 21.4001 20.6996 20C20.6996 18.5998 21.6997 17.7 23.6996 17.7C25.4996 17.7 26.4997 18.3 26.9996 19.8C27.0997 20.1 27.3997 20.3 27.6997 20.3H29.2995C29.6996 20.3 29.9996 20 29.9996 19.6001V19.5C29.5995 17.3 27.7995 15.6 25.4996 15.4001V13.0001C25.4996 12.6 25.1996 12.3 24.6997 12.2H23.1997C22.7996 12.2 22.4996 12.5 22.3995 13.0001V15.3C19.3995 15.7001 17.4997 17.7 17.4997 20.2001C17.4997 23.5001 19.4996 24.8 23.6996 25.3001C26.4997 25.8 27.3997 26.4 27.3997 28.0001C27.3997 29.6002 25.9995 30.7001 24.0997 30.7001C21.4995 30.7001 20.5995 29.6 20.2995 28.1C20.1997 27.7001 19.8997 27.5 19.5997 27.5H17.8995C17.4997 27.5 17.1997 27.8 17.1997 28.2V28.3001C17.5995 30.8 19.1996 32.6 22.4996 33.1001V35.5001C22.4996 35.9 22.7996 36.2 23.2995 36.3H24.7995C25.1996 36.3 25.4996 36 25.5997 35.5001V33.1001C28.5997 32.6 30.5996 30.5 30.5996 27.8Z"
    fill="white" />
  <path
    d="M18.9 38.2996C11.1 35.4998 7.09992 26.7998 10.0001 19.0996C11.5001 14.8996 14.8001 11.6997 18.9 10.1997C19.3001 9.99976 19.5 9.69976 19.5 9.1996V7.79968C19.5 7.3996 19.3001 7.0996 18.9 6.99976C18.7999 6.99976 18.6 6.99976 18.4999 7.0996C9 10.0996 3.79992 20.1998 6.79992 29.6997C8.59992 35.2996 12.9 39.5997 18.4999 41.3997C18.9 41.5996 19.3001 41.3997 19.3999 40.9996C19.5 40.8998 19.5 40.7997 19.5 40.5998V39.1996C19.5 38.8996 19.2 38.4998 18.9 38.2996ZM29.5001 7.0996C29.1 6.89968 28.6999 7.0996 28.6001 7.49968C28.5 7.59976 28.5 7.6996 28.5 7.89976V9.29968C28.5 9.69976 28.8 10.0996 29.1 10.2998C36.9 13.0996 40.9001 21.7996 37.9999 29.4998C36.4999 33.6998 33.1999 36.8997 29.1 38.3997C28.6999 38.5996 28.5 38.8996 28.5 39.3998V40.7997C28.5 41.1998 28.6999 41.4998 29.1 41.5996C29.2001 41.5996 29.4 41.5996 29.5001 41.4998C39 38.4998 44.2001 28.3996 41.2001 18.8997C39.4001 13.1997 34.9999 8.8996 29.5001 7.0996Z"
    fill="white" />
</svg>
  