<svg width="43" height="42" viewBox="0 0 43 42" fill="none" xmlns="http://www.w3.org/2000/svg">
  <rect x="0.5" width="42" height="42" rx="9.625" fill="black" />
  <g clip-path="url(#clip0_521_2002)">
    <path
      d="M29.4731 17.5331C29.2721 18.2287 28.5036 18.5732 27.8338 18.2961C27.2301 18.0464 26.9275 17.3775 27.0757 16.7419C27.1699 16.3381 27.2378 15.9534 27.2793 15.588C27.361 14.8918 27.3602 14.273 27.2767 13.7316C27.1932 13.1901 27.0279 12.7415 26.7807 12.3858C26.5412 12.0232 26.2283 11.762 25.8422 11.6022C25.156 11.3184 24.3972 11.4303 23.5657 11.9379C22.7378 12.4369 21.885 13.321 21.0073 14.5901C20.1331 15.8506 19.2815 17.4803 18.4524 19.4793C17.609 21.5129 17.0483 23.2883 16.7704 24.8056C16.5002 26.3159 16.4809 27.5347 16.7125 28.4618C16.9518 29.382 17.4125 29.9831 18.0945 30.2653C18.4725 30.4216 18.8688 30.4639 19.2837 30.3922C19.7062 30.3136 20.1351 30.1211 20.5703 29.8145C21.0096 29.5096 21.4453 29.0916 21.8773 28.5606C22.1036 28.286 22.3241 27.9816 22.5387 27.6476C22.8934 27.0956 23.5867 26.8407 24.1905 27.0986C24.8552 27.3823 25.1475 28.168 24.7897 28.7954C24.3502 29.566 23.88 30.2828 23.379 30.9458C22.6361 31.9362 21.8587 32.7603 21.0468 33.418C20.2385 34.067 19.4276 34.5021 18.6139 34.7229C17.8038 34.9354 17.0228 34.886 16.2709 34.575C15.1616 34.116 14.3958 33.1656 13.9734 31.7235C13.551 30.2817 13.5127 28.4358 13.8585 26.1862C14.2042 23.9366 14.9693 21.384 16.1537 18.5283C17.3416 15.664 18.61 13.3196 19.9588 11.4951C21.3111 9.6619 22.6471 8.38462 23.9668 7.66325C25.2864 6.94188 26.4968 6.80895 27.5979 7.26445C28.3004 7.55509 28.8676 8.03301 29.2993 8.69823C29.731 9.36345 30.0161 10.1962 30.1548 11.1964C30.2971 12.188 30.2798 13.3265 30.1029 14.6118C29.9822 15.5243 29.7722 16.4981 29.4731 17.5331Z"
      fill="white" />
    <path
      d="M25.1728 21.8604C25.4673 21.1504 26.2824 20.8131 26.9934 21.1073L27.0617 21.1355C27.7726 21.4296 28.1103 22.2437 27.8158 22.9537C27.5213 23.6638 26.7062 24.001 25.9952 23.7069L25.9269 23.6786C25.216 23.3845 24.8783 22.5705 25.1728 21.8604Z"
      fill="white" />
  </g>
  <defs>
    <clipPath id="clip0_521_2002">
      <rect width="16.625" height="27.8523" fill="white" transform="translate(13.625 7)" />
    </clipPath>
  </defs>
</svg>
  