<svg xmlns="http://www.w3.org/2000/svg" viewBox="0 0 135.09 88" width="135.09" height="88"
    fill="none">
    <path fill="url(#a)"
        d="M135.09 53a29.002 29.002 0 0 1-29 29H52.34a15.488 15.488 0 0 0-.2-8.22h54a20.773 20.773 0 0 0 21.226-20.765 20.76 20.76 0 0 0-6.245-14.847 20.773 20.773 0 0 0-14.981-5.918c-1.502 0-3.001.162-4.47.48l-4.53 1-.43-4.63a22.69 22.69 0 0 0-44.43-4l-1.36 4.82-4.46-2.27a12.57 12.57 0 0 0-5.8-1.4 12.81 12.81 0 0 0-12.8 12.8c0 .785.073 1.569.22 2.34l1 5.23-5.3-.38h-1a13.798 13.798 0 0 0-12.75 19.081 13.8 13.8 0 0 0 12.75 8.519h.07a15.331 15.331 0 0 0-.19 8.22 22 22 0 0 1-3-43.82 21 21 0 0 1 26.23-19.5 30.91 30.91 0 0 1 58.3 5.42c.65 0 1.3-.07 2-.07A29 29 0 0 1 135.09 53Zm-29-7.4a7.351 7.351 0 0 0-4 1.16L82.71 33.39c.234-.806.352-1.64.35-2.48a9.035 9.035 0 0 0-18.07 0 8.941 8.941 0 0 0 1.52 5L40.37 69.69a9 9 0 1 0 6.08 8.53 8.94 8.94 0 0 0-1.52-5l26.14-33.78a9.06 9.06 0 0 0 3 .5 9 9 0 0 0 5.4-1.8L98.85 51.5a7.4 7.4 0 1 0 7.24-5.9Z" />
    <defs>
        <linearGradient id="a" x1="109.54" x2=".03" y1="15.42" y2="124.92"
            gradientUnits="userSpaceOnUse">
            <stop offset=".18" stop-color="#04AEFF" />
            <stop offset=".3" stop-color="#09A0F6" />
            <stop offset=".57" stop-color="#1383E3" />
            <stop offset=".8" stop-color="#1A72D8" />
            <stop offset=".98" stop-color="#1C6CD4" />
        </linearGradient>
    </defs>
</svg>