<svg xmlns="http://www.w3.org/2000/svg" width="392" height="88" fill="none">
    <path fill="url(#a)"
        d="M135.09 53a29.001 29.001 0 0 1-29 29H52.34a15.487 15.487 0 0 0-.2-8.22h54a20.773 20.773 0 0 0 19.601-12.712 20.76 20.76 0 0 0 0-16.107A20.763 20.763 0 0 0 106.14 32.25c-1.502 0-3.001.162-4.47.48l-4.53 1-.43-4.63a22.69 22.69 0 0 0-44.43-4l-1.36 4.82-4.46-2.27a12.57 12.57 0 0 0-5.8-1.4 12.81 12.81 0 0 0-12.8 12.8c0 .785.073 1.569.22 2.34l1 5.23-5.3-.38h-1a13.8 13.8 0 0 0 0 27.6h.07a15.33 15.33 0 0 0-.19 8.22 22 22 0 0 1-3-43.82 20.998 20.998 0 0 1 26.23-19.5 30.91 30.91 0 0 1 58.3 5.42c.65-.05 1.3-.07 2-.07A28.998 28.998 0 0 1 135.09 53Zm-29-7.4a7.353 7.353 0 0 0-4 1.16L82.71 33.39c.234-.806.352-1.641.35-2.48a9.035 9.035 0 0 0-18.07 0 8.94 8.94 0 0 0 1.52 5L40.37 69.69a8.999 8.999 0 1 0 6.08 8.53 8.94 8.94 0 0 0-1.52-5l26.14-33.78a9.063 9.063 0 0 0 3 .5 9 9 0 0 0 5.4-1.8L98.85 51.5a7.4 7.4 0 1 0 7.24-5.9Z" />
    <path fill="#fff"
        d="M170.62 65.75V35.21H177l.43 5.62v24.92h-6.81Zm20.7-15.64a15.28 15.28 0 0 0-.82-5.65 5.269 5.269 0 0 0-2.32-2.78 7.39 7.39 0 0 0-3.51-.79 6.31 6.31 0 0 0-5.32 2.26c-1.26 1.547-1.89 3.767-1.89 6.66h-2.57a21.868 21.868 0 0 1 1.41-8.28 11.296 11.296 0 0 1 4-5.25 10.751 10.751 0 0 1 6.23-1.8 12.52 12.52 0 0 1 6.26 1.46 9.439 9.439 0 0 1 4 4.55 19.855 19.855 0 0 1 1.38 8v1.59l-6.85.03Zm0 15.64V50.11h6.85v15.64h-6.85ZM200.73 41.07v-5.86h20.1v5.86h-20.1Zm15 25.41c-3.22 0-5.673-.803-7.36-2.41-1.686-1.607-2.533-3.917-2.54-6.93V25.68h6.78v30.17a4.642 4.642 0 0 0 1 3.24 3.796 3.796 0 0 0 3 1.1c.46-.009.916-.09 1.35-.24a6.515 6.515 0 0 0 1.65-.92l2.5 5.19c-.98.698-2.05 1.263-3.18 1.68a9.088 9.088 0 0 1-3.23.58h.03ZM239.27 66.48a15.251 15.251 0 0 1-7.91-2 14.686 14.686 0 0 1-5.43-5.65 16.89 16.89 0 0 1-2-8.31 16.663 16.663 0 0 1 2-8.31 14.722 14.722 0 0 1 5.53-5.65 15.69 15.69 0 0 1 8-2 13.47 13.47 0 0 1 7.39 2.1 14.473 14.473 0 0 1 5.22 6.08 21.404 21.404 0 0 1 1.93 9.47h-24l.92-.86a9.232 9.232 0 0 0 1.22 4.86 8.36 8.36 0 0 0 3.24 3.14 9.072 9.072 0 0 0 4.46 1.1 8 8 0 0 0 4.64-1.25 8.644 8.644 0 0 0 2.87-3.27l6.05 2.57a15.994 15.994 0 0 1-3.27 4.28 13.737 13.737 0 0 1-4.71 2.81 18.258 18.258 0 0 1-6.15.89Zm-7.87-18.75-1-.85h17.22l-.91.85a6.88 6.88 0 0 0-3.88-6.57 7.858 7.858 0 0 0-3.51-.82 8.842 8.842 0 0 0-3.67.82 7.75 7.75 0 0 0-3 2.45 6.62 6.62 0 0 0-1.25 4.12ZM257.78 65.75V35.21h6.84v30.54h-6.84Zm4.52-16.25a15.587 15.587 0 0 1 1.9-8.12 12.205 12.205 0 0 1 4.91-4.74 13.642 13.642 0 0 1 6.33-1.55v6.53a17.802 17.802 0 0 0-5.29.77 8.573 8.573 0 0 0-4 2.47 6.532 6.532 0 0 0-1.53 4.52l-2.32.12ZM288.69 65.75l-10.38-30.54h6.9l10 30.54h-6.52Zm.61 0 10-30.54h6l-9.84 30.54h-6.16Zm20.4 0-9.77-30.54H306l10 30.54h-6.3Zm.07 0 10.2-30.54h6.9l-10.39 30.54h-6.71ZM342.51 66.48a15.232 15.232 0 0 1-7.91-2 14.626 14.626 0 0 1-5.44-5.65 17.005 17.005 0 0 1-2-8.31 16.764 16.764 0 0 1 2-8.31 14.792 14.792 0 0 1 5.53-5.65 15.69 15.69 0 0 1 8-2 13.47 13.47 0 0 1 7.39 2.1 14.473 14.473 0 0 1 5.22 6.08 21.404 21.404 0 0 1 1.93 9.47h-24l.92-.86a9.333 9.333 0 0 0 1.22 4.86 8.36 8.36 0 0 0 3.24 3.14 9.072 9.072 0 0 0 4.46 1.1 8.001 8.001 0 0 0 4.64-1.25 8.644 8.644 0 0 0 2.87-3.27l6 2.57a15.994 15.994 0 0 1-3.27 4.28 13.787 13.787 0 0 1-4.7 2.81 18.34 18.34 0 0 1-6.1.89Zm-7.88-18.75-1-.85h17.23l-.92.85a7.192 7.192 0 0 0-1.1-4.12 7.1 7.1 0 0 0-2.78-2.45 7.858 7.858 0 0 0-3.51-.82 8.88 8.88 0 0 0-3.67.82 7.743 7.743 0 0 0-3 2.45 6.607 6.607 0 0 0-1.25 4.12ZM361 65.75V23h6.85v37.08l-.37 5.68-6.48-.01Zm16.5.73a11.108 11.108 0 0 1-6.63-2 12.449 12.449 0 0 1-4.25-5.59 25.15 25.15 0 0 1 0-16.89 12.474 12.474 0 0 1 4.25-5.56 11.108 11.108 0 0 1 6.63-2 13.12 13.12 0 0 1 7.24 2 13.455 13.455 0 0 1 4.82 5.56 21.363 21.363 0 0 1 0 16.89 13.42 13.42 0 0 1-4.82 5.59 13.12 13.12 0 0 1-7.23 2h-.01Zm-1.71-6.23a7.631 7.631 0 0 0 4.33-1.25 8.94 8.94 0 0 0 3-3.45 11.006 11.006 0 0 0 1.13-5.07 11.52 11.52 0 0 0-1.07-5.07 8.194 8.194 0 0 0-3-3.42 7.91 7.91 0 0 0-4.4-1.22 7.31 7.31 0 0 0-4.16 1.22 8.001 8.001 0 0 0-2.84 3.42 13.347 13.347 0 0 0 0 10.14 8.386 8.386 0 0 0 2.81 3.45 7 7 0 0 0 4.21 1.25h-.01ZM161.27 29.09a4.11 4.11 0 0 1-4.07-4.07 3.82 3.82 0 0 1 1.21-2.83 4.091 4.091 0 0 1 5.73 0c.387.362.693.8.899 1.288.207.488.31 1.013.301 1.542a4.098 4.098 0 0 1-4.07 4.07Zm-3.45 36.66V34.94h6.84v30.81h-6.84Z" />
    <defs>
        <linearGradient id="a" x1="109.54" x2=".03" y1="15.42" y2="124.92"
            gradientUnits="userSpaceOnUse">
            <stop offset=".18" stop-color="#04AEFF" />
            <stop offset=".3" stop-color="#09A0F6" />
            <stop offset=".57" stop-color="#1383E3" />
            <stop offset=".8" stop-color="#1A72D8" />
            <stop offset=".98" stop-color="#1C6CD4" />
        </linearGradient>
    </defs>
</svg>