<svg width="43" height="42" viewBox="0 0 43 42" fill="none" xmlns="http://www.w3.org/2000/svg">
  <path
    d="M0.5 17.85C0.5 10.9758 0.5 7.53872 2.04728 5.01376C2.91307 3.60093 4.10092 2.41307 5.51376 1.54727C8.0387 -2.50339e-07 11.4758 0 18.35 0H24.65C31.5241 0 34.9613 -2.50339e-07 37.4862 1.54727C38.899 2.41307 40.0869 3.60093 40.9526 5.01376C42.5 7.53872 42.5 10.9758 42.5 17.85V24.15C42.5 31.0242 42.5 34.4613 40.9526 36.9862C40.0869 38.3991 38.899 39.587 37.4862 40.4527C34.9613 42 31.5241 42 24.65 42H18.35C11.4758 42 8.0387 42 5.51376 40.4527C4.10092 39.587 2.91307 38.3991 2.04728 36.9862C0.5 34.4613 0.5 31.0242 0.5 24.15V17.85Z"
    fill="url(#paint0_linear_856_402)" />
  <path
    d="M0.5 17.85C0.5 10.9758 0.5 7.53872 2.04728 5.01376C2.91307 3.60093 4.10092 2.41307 5.51376 1.54727C8.0387 -2.50339e-07 11.4758 0 18.35 0H24.65C31.5241 0 34.9613 -2.50339e-07 37.4862 1.54727C38.899 2.41307 40.0869 3.60093 40.9526 5.01376C42.5 7.53872 42.5 10.9758 42.5 17.85V24.15C42.5 31.0242 42.5 34.4613 40.9526 36.9862C40.0869 38.3991 38.899 39.587 37.4862 40.4527C34.9613 42 31.5241 42 24.65 42H18.35C11.4758 42 8.0387 42 5.51376 40.4527C4.10092 39.587 2.91307 38.3991 2.04728 36.9862C0.5 34.4613 0.5 31.0242 0.5 24.15V17.85Z"
    fill="url(#paint1_radial_856_402)" />
  <path
    d="M0.5 17.85C0.5 10.9758 0.5 7.53872 2.04728 5.01376C2.91307 3.60093 4.10092 2.41307 5.51376 1.54727C8.0387 -2.50339e-07 11.4758 0 18.35 0H24.65C31.5241 0 34.9613 -2.50339e-07 37.4862 1.54727C38.899 2.41307 40.0869 3.60093 40.9526 5.01376C42.5 7.53872 42.5 10.9758 42.5 17.85V24.15C42.5 31.0242 42.5 34.4613 40.9526 36.9862C40.0869 38.3991 38.899 39.587 37.4862 40.4527C34.9613 42 31.5241 42 24.65 42H18.35C11.4758 42 8.0387 42 5.51376 40.4527C4.10092 39.587 2.91307 38.3991 2.04728 36.9862C0.5 34.4613 0.5 31.0242 0.5 24.15V17.85Z"
    fill="url(#paint2_radial_856_402)" />
  <path
    d="M0.5 17.85C0.5 10.9758 0.5 7.53872 2.04728 5.01376C2.91307 3.60093 4.10092 2.41307 5.51376 1.54727C8.0387 -2.50339e-07 11.4758 0 18.35 0H24.65C31.5241 0 34.9613 -2.50339e-07 37.4862 1.54727C38.899 2.41307 40.0869 3.60093 40.9526 5.01376C42.5 7.53872 42.5 10.9758 42.5 17.85V24.15C42.5 31.0242 42.5 34.4613 40.9526 36.9862C40.0869 38.3991 38.899 39.587 37.4862 40.4527C34.9613 42 31.5241 42 24.65 42H18.35C11.4758 42 8.0387 42 5.51376 40.4527C4.10092 39.587 2.91307 38.3991 2.04728 36.9862C0.5 34.4613 0.5 31.0242 0.5 24.15V17.85Z"
    fill="url(#paint3_radial_856_402)" />
  <path
    d="M16.5287 32.55V22.3189L26.4702 32.55H32V32.2844L20.5664 20.6365L31.118 9.58271V9.44995H25.5526L16.5287 19.2175V9.44995H12.05V32.55H16.5287Z"
    fill="white" />
  <defs>
    <linearGradient id="paint0_linear_856_402" x1="21.5" y1="0" x2="21.5" y2="42"
      gradientUnits="userSpaceOnUse">
      <stop stop-color="#1FD1FF" />
      <stop offset="1" stop-color="#1BB8FF" />
    </linearGradient>
    <radialGradient id="paint1_radial_856_402" cx="0" cy="0" r="1" gradientUnits="userSpaceOnUse"
      gradientTransform="translate(2.50623 40.4086) rotate(-45.1556) scale(67.3548 68.3624)">
      <stop stop-color="#232DE3" />
      <stop offset="1" stop-color="#232DE3" stop-opacity="0" />
    </radialGradient>
    <radialGradient id="paint2_radial_856_402" cx="0" cy="0" r="1" gradientUnits="userSpaceOnUse"
      gradientTransform="translate(40.2379 41.7602) rotate(-138.45) scale(42.1137 64.2116)">
      <stop stop-color="#8B4DFF" />
      <stop offset="1" stop-color="#8B4DFF" stop-opacity="0" />
    </radialGradient>
    <radialGradient id="paint3_radial_856_402" cx="0" cy="0" r="1" gradientUnits="userSpaceOnUse"
      gradientTransform="translate(21.1501 0.311498) rotate(90) scale(33.1134 80.3422)">
      <stop stop-color="#24D5FF" />
      <stop offset="1" stop-color="#1BB8FF" stop-opacity="0" />
    </radialGradient>
  </defs>
</svg>
  