<svg width="43" height="42" viewBox="0 0 43 42" fill="none" xmlns="http://www.w3.org/2000/svg">
  <g clip-path="url(#clip0_116_448)">
    <path d="M40.0646 1.75L23.7981 13.7828L26.831 6.68937L40.0646 1.75Z" fill="#E17726"
      stroke="#E17726" stroke-width="0.309484" stroke-linecap="round" stroke-linejoin="round" />
    <path
      d="M2.55496 1.75L18.6729 13.8818L15.7885 6.70175L2.55496 1.75ZM34.209 29.6407L29.8762 36.2513L39.1484 38.8015L41.7976 29.7893L34.209 29.6407ZM0.834229 29.7893L3.47104 38.8015L12.7184 36.2513L8.41041 29.6407L0.834229 29.7893Z"
      fill="#E27625" stroke="#E27625" stroke-width="0.309484" stroke-linecap="round"
      stroke-linejoin="round" />
    <path
      d="M12.2233 18.4741L9.64844 22.3612L18.8092 22.7821L18.5121 12.9158L12.2233 18.4865V18.4741ZM30.3963 18.4865L24.0085 12.792L23.7981 22.7821L32.9588 22.3612L30.3963 18.4865ZM12.7185 36.2509L18.2769 33.577L13.4984 29.8631L12.7185 36.2509ZM24.3551 33.5646L29.8763 36.2509L29.1336 29.8508L24.3551 33.5646Z"
      fill="#E27625" stroke="#E27625" stroke-width="0.309484" stroke-linecap="round"
      stroke-linejoin="round" />
    <path
      d="M29.8761 36.2511L24.3549 33.5771L24.8005 37.1672L24.751 38.6898L29.8761 36.2511ZM12.7183 36.2511L17.8681 38.6898L17.8309 37.1672L18.2766 33.5771L12.7183 36.2511Z"
      fill="#D5BFB2" stroke="#D5BFB2" stroke-width="0.309484" stroke-linecap="round"
      stroke-linejoin="round" />
    <path
      d="M17.9549 27.4745L13.3745 26.1376L16.6179 24.652L17.9673 27.4745H17.9549ZM24.6521 27.4745L26.0139 24.6396L29.2696 26.1252L24.6521 27.4869V27.4745Z"
      fill="#233447" stroke="#233447" stroke-width="0.309484" stroke-linecap="round"
      stroke-linejoin="round" />
    <path
      d="M12.7184 36.251L13.5231 29.6404L8.4104 29.789L12.7184 36.251ZM29.0963 29.6404L29.8762 36.251L34.209 29.789L29.0963 29.6404ZM32.9711 22.3613L23.8103 22.7822L24.6521 27.4864L26.0139 24.6391L29.2696 26.1247L32.9711 22.3613ZM13.3745 26.137L16.6179 24.6515L17.9673 27.474L18.8215 22.7698L9.66072 22.3613L13.3745 26.137Z"
      fill="#CC6228" stroke="#CC6228" stroke-width="0.309484" stroke-linecap="round"
      stroke-linejoin="round" />
    <path
      d="M9.66089 22.3613L13.4985 29.8509L13.3747 26.137L9.66089 22.3613ZM29.2698 26.137L29.1213 29.8509L32.9589 22.3613L29.2698 26.137ZM18.8216 22.7822L17.9551 27.4864L19.0445 33.0324L19.292 25.7161L18.8216 22.7822ZM23.7981 22.7822L23.3525 25.7038L23.5753 33.0324L24.6523 27.474L23.7981 22.7698V22.7822Z"
      fill="#E27525" stroke="#E27525" stroke-width="0.309484" stroke-linecap="round"
      stroke-linejoin="round" />
    <path
      d="M24.6521 27.4747L23.575 33.033L24.3549 33.5777L29.121 29.8639L29.2696 26.1377L24.6521 27.4747ZM13.3744 26.1377L13.4982 29.8515L18.2767 33.5653L19.0442 33.033L17.9672 27.4747L13.3621 26.1377H13.3744Z"
      fill="#F5841F" stroke="#F5841F" stroke-width="0.309484" stroke-linecap="round"
      stroke-linejoin="round" />
    <path
      d="M24.7634 38.6897L24.8005 37.1671L24.3796 36.8204H18.2395L17.8309 37.1671L17.8681 38.6897L12.7183 36.251L14.5257 37.7365L18.1776 40.2495H24.4292L28.0934 37.7241L29.8761 36.251L24.751 38.6897H24.7634Z"
      fill="#C0AC9D" stroke="#C0AC9D" stroke-width="0.309484" stroke-linecap="round"
      stroke-linejoin="round" />
    <path
      d="M24.355 33.5645L23.5751 33.0322H19.0442L18.2767 33.5769L17.8311 37.1669L18.2396 36.8203H24.3797L24.8006 37.1669L24.355 33.5769V33.5645Z"
      fill="#161616" stroke="#161616" stroke-width="0.309484" stroke-linecap="round"
      stroke-linejoin="round" />
    <path
      d="M40.7577 14.5627L42.1195 7.93969L40.0645 1.75L24.3427 13.3866L30.3962 18.4745L38.938 20.9628L40.8196 18.7716L40.0026 18.1774L41.3024 16.989L40.3121 16.2215L41.6119 15.2311L40.7453 14.5627H40.7577ZM0.5 7.92731L1.88649 14.5627L0.995175 15.2188L2.31977 16.2091L1.32942 16.989L2.61687 18.1774L1.79983 18.7716L3.6815 20.9628L12.2233 18.4869L18.2768 13.3742L2.55498 1.75L0.5 7.92731Z"
      fill="#763E1A" stroke="#763E1A" stroke-width="0.309484" stroke-linecap="round"
      stroke-linejoin="round" />
    <path
      d="M38.9379 20.9629L30.3962 18.487L32.9711 22.3617L29.1335 29.8513L34.209 29.7894H41.7976L38.9379 20.9629ZM12.2233 18.4746L3.68148 20.9629L0.834229 29.7894H8.42279L13.4983 29.8513L9.66072 22.3617L12.2356 18.4746H12.2233ZM23.798 22.7826L24.355 13.3743L26.8309 6.68945H15.7885L18.2644 13.3743L18.8215 22.7826L19.0319 25.7289V33.0328H23.5751L23.5999 25.7289L23.798 22.7826Z"
      fill="#F5841F" stroke="#F5841F" stroke-width="0.309484" stroke-linecap="round"
      stroke-linejoin="round" />
  </g>
  <defs>
    <clipPath id="clip0_116_448">
      <rect width="42" height="42" fill="white" transform="translate(0.5)" />
    </clipPath>
  </defs>
</svg>
  