<svg width="149" height="39" viewBox="0 0 149 39" fill="none" xmlns="http://www.w3.org/2000/svg">
  <path
    d="M36.3916 24.0486C36.3927 25.6785 36.0784 27.2683 35.4556 28.7732C34.8316 30.2804 33.9311 31.627 32.7806 32.7786C31.6267 33.9313 30.2789 34.8306 28.774 35.4534C27.2713 36.0751 25.6849 36.3917 24.0596 36.3917H24.0504H24.0481H23.9999C21.3961 36.3917 18.8118 35.5429 16.7172 34.0001C14.6089 32.4471 13.0249 30.2127 12.2368 27.633C11.8835 26.47 11.7046 25.2667 11.7069 24.0532V14.9516C11.708 14.0844 12.0453 13.2701 12.6589 12.6564C13.2726 12.0439 14.087 11.7067 14.9519 11.7055C15.8179 11.7078 16.6324 12.0473 17.2449 12.6587C17.8563 13.2712 18.1946 14.0856 18.1969 14.9504V24.0497C18.1981 25.612 18.8083 27.0825 19.9164 28.187C20.7377 29.006 21.7735 29.5577 22.9114 29.7814C24.0481 30.0074 25.2169 29.8915 26.2894 29.4476C27.3608 29.0037 28.2681 28.2605 28.9139 27.2958C29.5609 26.3323 29.9038 25.2105 29.9061 24.0486V5.85343C29.9061 5.42559 29.9887 5.00693 30.1527 4.61121C30.3156 4.21663 30.5519 3.8622 30.8559 3.55939C31.1587 3.25772 31.512 3.02029 31.9077 2.85627C32.6981 2.53051 33.5985 2.52937 34.39 2.85627C34.7857 3.02029 35.139 3.25772 35.4418 3.55939C35.7446 3.8622 35.9809 4.21663 36.145 4.61121C36.309 5.00693 36.3916 5.42559 36.3916 5.85343V24.0486ZM10.8156 10.812C9.70985 11.9177 9.09962 13.3882 9.09847 14.9504V33.1468C9.09847 34.0128 8.76124 34.8271 8.14756 35.4408C6.9225 36.6681 4.78438 36.6681 3.55818 35.4408C2.94565 34.8271 2.60841 34.0128 2.60841 33.1468V14.9516C2.61071 11.9934 3.67632 9.13161 5.60912 6.89263C7.54306 4.65364 10.218 3.18317 13.1441 2.74959C13.7464 2.66013 14.3509 2.61539 14.9531 2.61539C17.2781 2.61539 19.5723 3.27378 21.5567 4.52977C22.4938 5.12278 23.3392 5.83508 24.0756 6.64258C24.0825 6.6357 24.0871 6.62767 24.094 6.62078L24.1112 6.68616C25.3213 8.02473 26.2344 9.62139 26.7655 11.3717L26.8159 11.5381C27.1383 12.6484 27.3011 13.7965 27.3023 14.9504V24.0486C27.3023 24.6921 27.113 25.3149 26.7551 25.8494C26.3973 26.3839 25.8948 26.7969 25.3007 27.0446C24.9141 27.2052 24.5058 27.2809 24.094 27.2855V27.2912C24.0779 27.2912 24.063 27.2866 24.0469 27.2866C23.8405 27.2866 23.6329 27.2729 23.4264 27.2316C23.3071 27.2086 23.1912 27.1719 23.0765 27.1352V27.1192C22.9985 27.0939 22.9182 27.0813 22.8425 27.0492C22.2484 26.8014 21.7459 26.3885 21.3881 25.854C21.0302 25.3184 20.8409 24.6955 20.8409 24.0532V15.813H20.8386V14.9493C20.8363 14.1728 20.6849 13.4169 20.3878 12.7034C20.0896 11.9888 19.6594 11.3488 19.11 10.8017C18.5606 10.2557 17.9182 9.83014 17.2001 9.53536C16.4832 9.24058 15.7216 9.08229 14.9531 9.09605C13.3908 9.0972 11.9214 9.70741 10.8156 10.812ZM37.2828 1.71728C36.1771 0.612698 34.7088 0.00362778 33.1477 0.00133133H33.1454C31.5843 0.00592041 30.1172 0.616135 29.0137 1.72071C27.9125 2.82529 27.3046 4.29234 27.3023 5.85343V6.51067C25.6574 4.10766 23.3381 2.22655 20.6103 1.11165C17.2116 -0.273949 13.4332 -0.369156 9.96679 0.853569C7.0372 1.89277 4.54006 3.78305 2.74606 6.32026C0.952058 8.85862 0.00229412 11.8432 0 14.9504V33.1468C0 34.7101 0.609087 36.1795 1.71485 37.2852C2.81947 38.3909 4.29 39 5.85344 39C7.41688 39 8.88626 38.3909 9.99203 37.2852C11.0978 36.1795 11.7069 34.7101 11.7069 33.1468V32.4941C13.3529 34.896 15.67 36.7771 18.3977 37.8897C21.7941 39.2753 25.5714 39.3659 29.0366 38.1466C31.9651 37.1086 34.4599 35.2171 36.2551 32.6799C38.0479 30.1416 38.9977 27.1593 39 24.0532V5.85228C38.9977 4.29119 38.3875 2.823 37.2828 1.71728Z"
    fill="url(#paint0_linear_521_2055)" />
  <path
    d="M148.474 24.4137H133.239C133.712 25.738 134.414 26.7399 135.347 27.4193C136.291 28.0987 137.431 28.4384 138.767 28.4384C139.815 28.4384 140.69 28.2311 141.392 27.8165C142.095 27.3905 142.688 26.7629 143.171 25.9338H148.129C147.806 26.832 147.449 27.5805 147.058 28.1793C146.448 29.0775 145.711 29.8778 144.847 30.5803C143.995 31.2827 143.062 31.8182 142.049 32.1867C141.047 32.5667 139.867 32.7567 138.508 32.7567C135.226 32.7567 132.595 31.536 130.614 29.0948C129.059 27.1602 128.282 24.8859 128.282 22.2719C128.282 20.3373 128.737 18.5466 129.647 16.8999C130.556 15.2417 131.817 13.9635 133.429 13.0653C135.053 12.1555 136.821 11.7007 138.732 11.7007C140.586 11.7007 142.291 12.1383 143.845 13.0134C145.4 13.8771 146.609 15.1035 147.472 16.6926C148.336 18.2702 148.768 19.963 148.768 21.7709C148.768 22.6461 148.67 23.527 148.474 24.4137ZM143.949 20.6136C143.661 19.1281 143.045 17.9939 142.101 17.2108C141.156 16.4163 139.987 16.019 138.594 16.019C137.558 16.019 136.648 16.2493 135.865 16.7099C135.093 17.159 134.449 17.7866 133.93 18.5927C133.596 19.1224 133.32 19.796 133.101 20.6136H143.949Z"
    fill="#070B28" />
  <path d="M121.32 32.1178V5.93164H126.019V32.1178H121.32Z" fill="#070B28" />
  <path
    d="M98.4153 32.1178V5.93164H103.114V14.2573C104.829 12.6336 106.879 11.8218 109.263 11.8218C110.99 11.8218 112.62 12.2709 114.151 13.1691C115.683 14.0558 116.892 15.334 117.778 17.0037C118.665 18.6735 119.109 20.4008 119.109 22.1857C119.109 23.89 118.694 25.6173 117.865 27.3676C117.047 29.1065 115.89 30.4423 114.393 31.375C112.907 32.2962 111.197 32.7569 109.263 32.7569C107.858 32.7569 106.649 32.5208 105.635 32.0487C104.634 31.565 103.666 30.7992 102.734 29.7513V32.1178H98.4153ZM102.837 22.0302C102.837 24.0454 103.43 25.6173 104.616 26.7458C105.814 27.8743 107.196 28.4386 108.762 28.4386C110.351 28.4386 111.687 27.8686 112.769 26.7285C113.863 25.5885 114.41 24.103 114.41 22.2721C114.41 20.4641 113.852 18.9902 112.735 17.8501C111.629 16.6986 110.27 16.1228 108.658 16.1228C107.61 16.1228 106.626 16.3934 105.705 16.9346C104.783 17.4759 104.075 18.2186 103.58 19.1629C103.085 20.0956 102.837 21.0514 102.837 22.0302Z"
    fill="#070B28" />
  <path
    d="M86.1509 32.7566C84.769 32.7566 83.439 32.4917 82.1608 31.962C80.8826 31.4323 79.7828 30.7069 78.8616 29.7856C77.9404 28.8529 77.2207 27.8453 76.7025 26.7628C76.0231 25.3579 75.6833 23.8667 75.6833 22.2891C75.6833 20.4696 76.144 18.7366 77.0652 17.0898C77.998 15.4316 79.2934 14.1419 80.9517 13.2207C82.6099 12.2879 84.343 11.8215 86.1509 11.8215C87.9703 11.8215 89.7034 12.2822 91.3501 13.2034C92.9968 14.1246 94.275 15.4028 95.1847 17.038C96.0945 18.6617 96.5493 20.4236 96.5493 22.3236C96.5493 23.6709 96.3248 24.9376 95.8757 26.1237C95.4381 27.2983 94.8335 28.3232 94.062 29.1983C93.302 30.0735 92.5074 30.7529 91.6783 31.2366C90.8607 31.7202 89.974 32.0945 89.0182 32.3593C88.0624 32.6242 87.1067 32.7566 86.1509 32.7566ZM86.1509 28.4383C87.7976 28.4383 89.1564 27.8338 90.2273 26.6246C91.3098 25.4155 91.851 23.9876 91.851 22.3409C91.851 21.2354 91.5862 20.1933 91.0565 19.2144C90.5268 18.2241 89.807 17.4641 88.8973 16.9344C87.9991 16.3932 87.0894 16.1226 86.1682 16.1226C85.2584 16.1226 84.3314 16.3874 83.3872 16.9171C82.4544 17.4468 81.7174 18.1896 81.1762 19.1454C80.6465 20.1011 80.3816 21.1606 80.3816 22.3236C80.3816 23.4636 80.6465 24.5115 81.1762 25.4673C81.7059 26.4231 82.4199 27.1601 83.3181 27.6783C84.2278 28.185 85.1721 28.4383 86.1509 28.4383Z"
    fill="#070B28" />
  <path
    d="M51.7937 32.1178V5.93164H57.3038L68.1341 24.9667H68.2032V5.93164H73.057V32.1178H67.6505L56.7166 13.0827H56.6475V32.1178H51.7937Z"
    fill="#070B28" />
  <defs>
    <linearGradient id="paint0_linear_521_2055" x1="-1.72059" y1="38.7118" x2="38.7765"
      y2="-4.67249" gradientUnits="userSpaceOnUse">
      <stop offset="0.05" stop-color="#A0ADFF" />
      <stop offset="1" stop-color="#4C52D8" />
    </linearGradient>
  </defs>
</svg>
  