<svg width="206" height="36" viewBox="0 0 206 36" fill="none" xmlns="http://www.w3.org/2000/svg">
  <path
    d="M114.881 10.3882V17.1416H121.738V18.6424H114.881V25.4992H122.514V27H113.07V8.8875H122.514V10.3882H114.881ZM133.484 27L129.835 21.3075L126.316 27H124.401L128.955 19.9361L124.453 12.8722H126.497L130.094 18.4871L133.587 12.8722H135.476L130.974 19.8585L135.528 27H133.484ZM139.77 15.9772C140.219 15.0285 140.926 14.2436 141.892 13.6226C142.875 12.9844 144.04 12.6652 145.385 12.6652C146.662 12.6652 147.809 12.9671 148.826 13.5709C149.861 14.1574 150.664 15.0026 151.233 16.1066C151.819 17.1934 152.113 18.4612 152.113 19.9102C152.113 21.3592 151.819 22.6357 151.233 23.7397C150.664 24.8437 149.861 25.6976 148.826 26.3014C147.809 26.9051 146.662 27.207 145.385 27.207C144.057 27.207 142.901 26.8965 141.918 26.2755C140.935 25.6372 140.219 24.8437 139.77 23.895V33.6758H137.985V12.8722H139.77V15.9772ZM150.275 19.9102C150.275 18.7372 150.043 17.7281 149.577 16.8829C149.128 16.0204 148.507 15.3649 147.714 14.9164C146.92 14.4679 146.023 14.2436 145.023 14.2436C144.057 14.2436 143.168 14.4765 142.358 14.9422C141.564 15.408 140.935 16.0721 140.469 16.9346C140.003 17.7971 139.77 18.7976 139.77 19.9361C139.77 21.0746 140.003 22.0751 140.469 22.9376C140.935 23.8001 141.564 24.4642 142.358 24.93C143.168 25.3957 144.057 25.6286 145.023 25.6286C146.023 25.6286 146.92 25.4044 147.714 24.9559C148.507 24.4901 149.128 23.826 149.577 22.9635C150.043 22.0837 150.275 21.066 150.275 19.9102ZM157.257 15.3821C157.653 14.5024 158.257 13.821 159.068 13.338C159.896 12.855 160.905 12.6135 162.095 12.6135V14.5024H161.604C160.293 14.5024 159.24 14.856 158.447 15.5632C157.653 16.2705 157.257 17.4521 157.257 19.1081V27H155.445V12.8722H157.257V15.3821ZM177.602 19.2116C177.602 19.8326 177.585 20.307 177.551 20.6347H165.829C165.881 21.7042 166.14 22.6185 166.605 23.3775C167.071 24.1365 167.684 24.7144 168.443 25.1111C169.202 25.4906 170.03 25.6804 170.927 25.6804C172.1 25.6804 173.083 25.3957 173.876 24.8265C174.687 24.2572 175.222 23.4896 175.481 22.5236H177.395C177.05 23.9036 176.309 25.0335 175.17 25.9132C174.049 26.7757 172.634 27.207 170.927 27.207C169.598 27.207 168.408 26.9138 167.356 26.3272C166.304 25.7235 165.476 24.8782 164.872 23.7915C164.285 22.6875 163.992 21.4024 163.992 19.9361C163.992 18.4699 164.285 17.1847 164.872 16.0807C165.458 14.9767 166.278 14.1315 167.33 13.545C168.382 12.9585 169.581 12.6652 170.927 12.6652C172.272 12.6652 173.445 12.9585 174.446 13.545C175.463 14.1315 176.24 14.925 176.774 15.9255C177.326 16.9087 177.602 18.0041 177.602 19.2116ZM175.765 19.1599C175.782 18.1076 175.567 17.2106 175.118 16.4689C174.687 15.7271 174.092 15.1665 173.333 14.787C172.574 14.4075 171.746 14.2177 170.849 14.2177C169.503 14.2177 168.356 14.649 167.408 15.5115C166.459 16.374 165.933 17.5901 165.829 19.1599H175.765ZM185.781 27.207C184.159 27.207 182.831 26.8361 181.796 26.0944C180.778 25.3354 180.209 24.309 180.088 23.0152H181.951C182.037 23.8087 182.408 24.4556 183.064 24.9559C183.736 25.4389 184.633 25.6804 185.755 25.6804C186.738 25.6804 187.506 25.4475 188.058 24.9817C188.627 24.516 188.911 23.9381 188.911 23.2481C188.911 22.7651 188.756 22.3684 188.446 22.0579C188.135 21.7474 187.738 21.5059 187.255 21.3334C186.79 21.1436 186.151 20.9452 185.341 20.7382C184.288 20.4622 183.435 20.1862 182.779 19.9102C182.124 19.6342 181.563 19.2289 181.097 18.6941C180.649 18.1421 180.424 17.409 180.424 16.4947C180.424 15.8047 180.631 15.1665 181.045 14.58C181.459 13.9935 182.046 13.5277 182.805 13.1827C183.564 12.8377 184.426 12.6652 185.392 12.6652C186.91 12.6652 188.135 13.0534 189.067 13.8296C189.998 14.5886 190.498 15.6409 190.567 16.9864H188.756C188.704 16.1584 188.377 15.4942 187.773 14.994C187.186 14.4765 186.376 14.2177 185.341 14.2177C184.426 14.2177 183.685 14.4334 183.115 14.8646C182.546 15.2959 182.262 15.8306 182.262 16.4689C182.262 17.0209 182.425 17.478 182.753 17.8402C183.098 18.1852 183.521 18.4612 184.021 18.6682C184.521 18.858 185.194 19.0736 186.039 19.3151C187.057 19.5911 187.868 19.8585 188.472 20.1172C189.075 20.376 189.593 20.7555 190.024 21.2557C190.455 21.756 190.68 22.4201 190.697 23.2481C190.697 24.0071 190.49 24.6885 190.076 25.2923C189.662 25.8787 189.084 26.3445 188.342 26.6895C187.6 27.0345 186.747 27.207 185.781 27.207ZM198.971 27.207C197.349 27.207 196.021 26.8361 194.986 26.0944C193.968 25.3354 193.399 24.309 193.278 23.0152H195.141C195.228 23.8087 195.598 24.4556 196.254 24.9559C196.927 25.4389 197.824 25.6804 198.945 25.6804C199.928 25.6804 200.696 25.4475 201.248 24.9817C201.817 24.516 202.102 23.9381 202.102 23.2481C202.102 22.7651 201.946 22.3684 201.636 22.0579C201.325 21.7474 200.929 21.5059 200.446 21.3334C199.98 21.1436 199.342 20.9452 198.531 20.7382C197.479 20.4622 196.625 20.1862 195.969 19.9102C195.314 19.6342 194.753 19.2289 194.287 18.6941C193.839 18.1421 193.615 17.409 193.615 16.4947C193.615 15.8047 193.822 15.1665 194.236 14.58C194.65 13.9935 195.236 13.5277 195.995 13.1827C196.754 12.8377 197.617 12.6652 198.583 12.6652C200.101 12.6652 201.325 13.0534 202.257 13.8296C203.188 14.5886 203.689 15.6409 203.758 16.9864H201.946C201.895 16.1584 201.567 15.4942 200.963 14.994C200.377 14.4765 199.566 14.2177 198.531 14.2177C197.617 14.2177 196.875 14.4334 196.306 14.8646C195.736 15.2959 195.452 15.8306 195.452 16.4689C195.452 17.0209 195.616 17.478 195.943 17.8402C196.288 18.1852 196.711 18.4612 197.211 18.6682C197.712 18.858 198.384 19.0736 199.23 19.3151C200.247 19.5911 201.058 19.8585 201.662 20.1172C202.266 20.376 202.783 20.7555 203.214 21.2557C203.646 21.756 203.87 22.4201 203.887 23.2481C203.887 24.0071 203.68 24.6885 203.266 25.2923C202.852 25.8787 202.274 26.3445 201.532 26.6895C200.791 27.0345 199.937 27.207 198.971 27.207Z"
    fill="#020418" />
  <path
    d="M25.4405 21.3362C25.4413 22.4756 25.2216 23.587 24.7861 24.639C24.3499 25.6926 23.7204 26.634 22.9161 27.4391C22.1095 28.2449 21.1672 28.8736 20.1152 29.309C19.0647 29.7436 17.9557 29.9649 16.8194 29.9649H16.813H16.8114H16.7778C14.9575 29.9649 13.1508 29.3715 11.6866 28.2931C10.2128 27.2073 9.10535 25.6453 8.55446 23.842C8.30748 23.0289 8.18239 22.1877 8.18399 21.3394V14.9767C8.1848 14.3705 8.42055 13.8012 8.84955 13.3722C9.27856 12.944 9.8479 12.7082 10.4525 12.7074C11.0579 12.709 11.6273 12.9464 12.0555 13.3738C12.4829 13.802 12.7194 14.3713 12.721 14.9759V21.337C12.7218 22.4291 13.1484 23.4571 13.9231 24.2293C14.4972 24.8018 15.2213 25.1875 16.0168 25.3438C16.8114 25.5018 17.6285 25.4208 18.3783 25.1105C19.1273 24.8002 19.7615 24.2806 20.213 23.6062C20.6653 22.9327 20.905 22.1484 20.9066 21.3362V8.61637C20.9066 8.31728 20.9644 8.02461 21.079 7.74797C21.1929 7.47213 21.3581 7.22436 21.5706 7.01267C21.7823 6.80178 22.0293 6.6358 22.3059 6.52113C22.8584 6.29341 23.4879 6.2926 24.0412 6.52113C24.3178 6.6358 24.5648 6.80178 24.7765 7.01267C24.9882 7.22436 25.1534 7.47213 25.2681 7.74797C25.3827 8.02461 25.4405 8.31728 25.4405 8.61637V21.3362ZM7.56093 12.0828C6.78792 12.8558 6.36132 13.8837 6.36052 14.9759V27.6965C6.36052 28.3019 6.12476 28.8712 5.69576 29.3002C4.83935 30.1582 3.34464 30.1582 2.48743 29.3002C2.05923 28.8712 1.82348 28.3019 1.82348 27.6965V14.9767C1.82508 12.9087 2.57003 10.9081 3.9212 9.34285C5.27317 7.77763 7.14315 6.74966 9.18875 6.44656C9.60974 6.38401 10.0323 6.35274 10.4533 6.35274C12.0787 6.35274 13.6825 6.81301 15.0697 7.69103C15.7249 8.10559 16.3159 8.60354 16.8307 9.16805C16.8355 9.16324 16.8387 9.15763 16.8435 9.15281L16.8555 9.19852C17.7015 10.1343 18.3398 11.2505 18.7111 12.4741L18.7464 12.5904C18.9717 13.3666 19.0856 14.1692 19.0864 14.9759V21.3362C19.0864 21.786 18.9541 22.2214 18.7039 22.5951C18.4537 22.9687 18.1025 23.2574 17.6871 23.4306C17.4168 23.5429 17.1314 23.5958 16.8435 23.599V23.603C16.8323 23.603 16.8219 23.5998 16.8106 23.5998C16.6663 23.5998 16.5211 23.5902 16.3768 23.5613C16.2934 23.5453 16.2124 23.5196 16.1322 23.494V23.4827C16.0777 23.4651 16.0216 23.4563 15.9687 23.4338C15.5533 23.2606 15.2021 22.972 14.9519 22.5983C14.7017 22.2238 14.5694 21.7884 14.5694 21.3394V15.5789H14.5678V14.9751C14.5662 14.4322 14.4603 13.9038 14.2526 13.405C14.0441 12.9055 13.7434 12.4581 13.3593 12.0756C12.9752 11.6939 12.5262 11.3964 12.0242 11.1903C11.523 10.9842 10.9906 10.8736 10.4533 10.8832C9.36115 10.884 8.33395 11.3106 7.56093 12.0828ZM26.0635 5.72489C25.2905 4.95271 24.2641 4.52692 23.1727 4.52532H23.1711C22.0798 4.52852 21.0542 4.95511 20.2828 5.7273C19.513 6.49948 19.088 7.52505 19.0864 8.61637V9.07583C17.9365 7.39595 16.3151 6.08092 14.4082 5.30151C12.0322 4.33287 9.39082 4.26632 6.96754 5.1211C4.91954 5.84757 3.17384 7.16903 1.9197 8.94273C0.66556 10.7172 0.00160376 12.8037 0 14.9759V27.6965C0 28.7894 0.425798 29.8166 1.19881 30.5896C1.97102 31.3625 2.99903 31.7883 4.092 31.7883C5.18496 31.7883 6.21217 31.3625 6.98518 30.5896C7.7582 29.8166 8.18399 28.7894 8.18399 27.6965V27.2402C9.33469 28.9193 10.9545 30.2343 12.8614 31.0121C15.2357 31.9808 17.8763 32.0441 20.2988 31.1918C22.346 30.4661 24.0901 29.1438 25.345 27.3701C26.5984 25.5956 27.2623 23.5108 27.2639 21.3394V8.61557C27.2623 7.52425 26.8357 6.49788 26.0635 5.72489Z"
    fill="url(#paint0_linear_521_2011)" />
  <path
    d="M103.795 21.5915H93.1443C93.4744 22.5172 93.9654 23.2176 94.6175 23.6926C95.2776 24.1675 96.0746 24.405 97.0084 24.405C97.7409 24.405 98.3528 24.2601 98.8438 23.9703C99.3349 23.6724 99.7495 23.2337 100.088 22.6541H103.553C103.328 23.282 103.078 23.8053 102.805 24.2239C102.378 24.8518 101.863 25.4113 101.259 25.9023C100.663 26.3934 100.011 26.7677 99.3027 27.0253C98.6023 27.291 97.7772 27.4238 96.8273 27.4238C94.533 27.4238 92.6935 26.5705 91.3089 24.8639C90.2221 23.5114 89.6787 21.9215 89.6787 20.0942C89.6787 18.7417 89.9967 17.4899 90.6327 16.3387C91.2686 15.1795 92.1501 14.286 93.2771 13.658C94.4122 13.0221 95.6479 12.7041 96.9842 12.7041C98.2803 12.7041 99.4717 13.01 100.559 13.6218C101.645 14.2256 102.491 15.0829 103.094 16.1938C103.698 17.2967 104 18.4801 104 19.744C104 20.3558 103.932 20.9716 103.795 21.5915ZM100.631 18.9349C100.43 17.8965 99.999 17.1035 99.3389 16.5561C98.6788 16.0006 97.8617 15.7229 96.8876 15.7229C96.1631 15.7229 95.5272 15.8839 94.9797 16.2059C94.4404 16.5199 93.9896 16.9586 93.6273 17.5221C93.3939 17.8924 93.2007 18.3634 93.0477 18.9349H100.631Z"
    fill="#070B28" />
  <path d="M84.812 26.9775V8.67139H88.0965V26.9775H84.812Z" fill="#070B28" />
  <path
    d="M68.7996 26.9775V8.67139H72.084V14.4917C73.2835 13.3566 74.7164 12.789 76.3828 12.789C77.5903 12.789 78.7294 13.103 79.8001 13.7309C80.8708 14.3508 81.716 15.2443 82.3359 16.4116C82.9558 17.5789 83.2657 18.7864 83.2657 20.0342C83.2657 21.2256 82.9759 22.4331 82.3963 23.6568C81.8247 24.8723 81.0157 25.8062 79.9692 26.4582C78.9307 27.1022 77.7352 27.4242 76.3828 27.4242C75.4007 27.4242 74.5554 27.2592 73.847 26.9292C73.1466 26.591 72.4704 26.0557 71.8184 25.3231V26.9775H68.7996ZM71.8908 19.9255C71.8908 21.3343 72.3054 22.4331 73.1346 23.2221C73.9718 24.011 74.9378 24.4054 76.0326 24.4054C77.1436 24.4054 78.0774 24.0069 78.8341 23.21C79.5989 22.413 79.9812 21.3745 79.9812 20.0946C79.9812 18.8307 79.5908 17.8003 78.8099 17.0033C78.0371 16.1983 77.0872 15.7958 75.9602 15.7958C75.2276 15.7958 74.5393 15.985 73.8953 16.3633C73.2513 16.7417 72.7562 17.2609 72.4101 17.921C72.0639 18.5731 71.8908 19.2412 71.8908 19.9255Z"
    fill="#070B28" />
  <path
    d="M60.2258 27.4243C59.2598 27.4243 58.33 27.2391 57.4364 26.8688C56.5429 26.4985 55.7741 25.9913 55.13 25.3473C54.486 24.6953 53.9829 23.9909 53.6206 23.2341C53.1457 22.252 52.9082 21.2095 52.9082 20.1067C52.9082 18.8347 53.2302 17.6232 53.8742 16.472C54.5263 15.3128 55.4319 14.4112 56.5912 13.7672C57.7504 13.1151 58.9619 12.7891 60.2258 12.7891C61.4977 12.7891 62.7093 13.1111 63.8604 13.7551C65.0116 14.3991 65.9052 15.2927 66.5412 16.4358C67.1771 17.5709 67.4951 18.8025 67.4951 20.1308C67.4951 21.0727 67.3381 21.9582 67.0242 22.7874C66.7183 23.6085 66.2956 24.3249 65.7563 24.9368C65.225 25.5486 64.6695 26.0235 64.0899 26.3616C63.5183 26.6997 62.8985 26.9614 62.2303 27.1465C61.5621 27.3317 60.894 27.4243 60.2258 27.4243ZM60.2258 24.4054C61.377 24.4054 62.3269 23.9828 63.0756 23.1375C63.8323 22.2923 64.2106 21.2941 64.2106 20.1429C64.2106 19.3701 64.0255 18.6415 63.6552 17.9573C63.2849 17.265 62.7817 16.7336 62.1458 16.3633C61.5179 15.985 60.8819 15.7958 60.2379 15.7958C59.6019 15.7958 58.9539 15.981 58.2938 16.3513C57.6417 16.7216 57.1265 17.2408 56.7481 17.909C56.3778 18.5771 56.1927 19.3177 56.1927 20.1308C56.1927 20.9278 56.3778 21.6603 56.7481 22.3285C57.1184 22.9967 57.6175 23.5119 58.2455 23.8741C58.8814 24.2283 59.5415 24.4054 60.2258 24.4054Z"
    fill="#070B28" />
  <path
    d="M36.2075 26.9772V8.67114H40.0595L47.6307 21.9781H47.679V8.67114H51.0721V26.9772H47.2926L39.649 13.6703H39.6007V26.9772H36.2075Z"
    fill="#070B28" />
  <defs>
    <linearGradient id="paint0_linear_521_2011" x1="-1.20282" y1="31.5869" x2="27.1077" y2="1.25796"
      gradientUnits="userSpaceOnUse">
      <stop offset="0.05" stop-color="#A0ADFF" />
      <stop offset="1" stop-color="#4C52D8" />
    </linearGradient>
  </defs>
</svg>
  