<svg width="309" height="681" viewBox="0 0 309 681" fill="none" xmlns="http://www.w3.org/2000/svg">
  <path
    d="M616.41 308.913V513.632C616.418 539.839 606.372 565.052 588.342 584.079C570.312 603.105 545.67 614.496 519.49 615.905C493.311 617.315 467.588 608.636 447.617 591.656C427.647 574.676 414.95 550.687 412.142 524.63C411.814 521.881 411.683 519.131 411.618 516.316L411.618 310.68C411.585 310.092 411.585 309.501 411.618 308.913C411.963 295.253 409.57 281.662 404.58 268.941C399.589 256.22 392.102 244.626 382.56 234.843C373.017 225.059 361.612 217.284 349.017 211.975C336.421 206.667 322.891 203.932 309.221 203.932C295.552 203.932 282.021 206.667 269.426 211.975C256.831 217.284 245.426 225.059 235.883 234.843C226.341 244.626 218.854 256.22 213.863 268.941C208.873 281.662 206.48 295.253 206.825 308.913L206.825 718.285C207.171 731.945 204.778 745.536 199.787 758.257C194.797 770.977 187.31 782.571 177.767 792.355C168.225 802.138 156.82 809.913 144.224 815.222C131.629 820.531 118.098 823.266 104.429 823.266C90.7599 823.266 77.229 820.531 64.6337 815.222C52.0383 809.913 40.6334 802.138 31.0908 792.355C21.5483 782.571 14.0611 770.977 9.07062 758.257C4.08009 745.536 1.68714 731.945 2.03275 718.285L2.03275 308.913C2.08043 235.307 28.5722 164.166 76.6838 108.445C124.795 52.7244 191.327 16.1303 264.162 5.32677C336.997 -5.47678 411.291 10.2288 473.515 49.5836C535.739 88.9383 581.755 149.324 603.181 219.745C611.946 248.657 616.403 278.702 616.41 308.913Z"
    stroke="url(#paint0_linear_97_1943)" stroke-width="3.70702" stroke-miterlimit="10" />
  <defs>
    <linearGradient id="paint0_linear_97_1943" x1="137.441" y1="689.056" x2="692.003" y2="22.7137"
      gradientUnits="userSpaceOnUse">
      <stop stop-color="#A0ADFF" stop-opacity="0.1" />
      <stop offset="1" stop-color="#4C52D8" stop-opacity="0.75" />
    </linearGradient>
  </defs>
</svg>
  