<svg width="311" height="678" viewBox="0 0 311 678" fill="none" xmlns="http://www.w3.org/2000/svg">
  <path
    d="M-308 367.187V161.738C-308.008 135.437 -297.926 110.134 -279.832 91.0399C-261.737 71.9458 -237.007 60.5145 -210.735 59.0998C-184.462 57.6852 -158.647 66.395 -138.605 83.4357C-118.564 100.476 -105.822 124.55 -103.003 150.7C-102.675 153.46 -102.543 156.219 -102.477 159.045L-102.477 365.413C-102.445 366.004 -102.445 366.596 -102.477 367.187C-102.824 380.895 -100.423 394.535 -95.4145 407.301C-90.4062 420.067 -82.8924 431.703 -73.3158 441.521C-63.7392 451.339 -52.2936 459.142 -39.6534 464.47C-27.0131 469.798 -13.434 472.542 0.28382 472.542C14.0017 472.542 27.5808 469.798 40.221 464.47C52.8612 459.142 64.3069 451.339 73.8835 441.521C83.46 431.703 90.9738 420.067 95.9822 407.301C100.99 394.535 103.392 380.895 103.045 367.187L103.045 -43.6447C102.698 -57.3532 105.1 -70.9925 110.108 -83.7589C115.116 -96.5252 122.63 -108.16 132.207 -117.979C141.783 -127.797 153.229 -135.6 165.869 -140.928C178.509 -146.255 192.089 -149 205.806 -149C219.524 -149 233.103 -146.255 245.744 -140.928C258.384 -135.6 269.829 -127.797 279.406 -117.979C288.983 -108.16 296.496 -96.5252 301.505 -83.7589C306.513 -70.9925 308.915 -57.3532 308.568 -43.6447V367.187C308.52 441.055 281.934 512.45 233.651 568.369C185.367 624.289 118.599 661.013 45.5043 671.855C-27.5905 682.697 -102.15 666.936 -164.596 627.441C-227.042 587.946 -273.221 527.344 -294.724 456.672C-303.52 427.657 -307.993 397.505 -308 367.187Z"
    stroke="url(#paint0_linear_97_2008)" stroke-width="3.70702" stroke-miterlimit="10" />
  <defs>
    <linearGradient id="paint0_linear_97_2008" x1="172.677" y1="-14.3115" x2="-383.863" y2="654.406"
      gradientUnits="userSpaceOnUse">
      <stop stop-color="#A0ADFF" stop-opacity="0.1" />
      <stop offset="1" stop-color="#4C52D8" stop-opacity="0.75" />
    </linearGradient>
  </defs>
</svg>
  