<svg width="313" height="679" viewBox="0 0 313 679" fill="none" xmlns="http://www.w3.org/2000/svg">
    <mask id="mask0_332_1047" style="mask-type:alpha" maskUnits="userSpaceOnUse" x="0" y="0"
        width="313" height="679">
        <rect width="313" height="679" fill="#D9D9D9" />
    </mask>
    <g mask="url(#mask0_332_1047)">
        <path
            d="M620.41 306.913V511.632C620.418 537.839 610.372 563.052 592.342 582.079C574.312 601.105 549.67 612.496 523.49 613.905C497.311 615.315 471.588 606.636 451.617 589.656C431.647 572.676 418.95 548.687 416.142 522.63C415.814 519.881 415.683 517.131 415.618 514.316L415.618 308.68C415.585 308.092 415.585 307.501 415.618 306.913C415.963 293.253 413.57 279.662 408.58 266.941C403.589 254.22 396.102 242.626 386.56 232.843C377.017 223.059 365.612 215.284 353.017 209.975C340.421 204.667 326.891 201.932 313.221 201.932C299.552 201.932 286.021 204.667 273.426 209.975C260.831 215.284 249.426 223.059 239.883 232.843C230.341 242.626 222.854 254.22 217.863 266.941C212.873 279.662 210.48 293.253 210.825 306.913L210.825 716.285C211.171 729.945 208.778 743.536 203.787 756.257C198.797 768.977 191.31 780.571 181.767 790.355C172.225 800.138 160.82 807.913 148.224 813.222C135.629 818.531 122.098 821.266 108.429 821.266C94.7599 821.266 81.229 818.531 68.6337 813.222C56.0383 807.913 44.6334 800.138 35.0908 790.355C25.5483 780.571 18.0611 768.977 13.0706 756.257C8.08009 743.536 5.68714 729.945 6.03275 716.285L6.03275 306.913C6.08043 233.307 32.5722 162.166 80.6838 106.445C128.795 50.7244 195.327 14.1303 268.162 3.32677C340.997 -7.47678 415.291 8.22882 477.515 47.5836C539.739 86.9383 585.755 147.324 607.181 217.745C615.946 246.657 620.403 276.702 620.41 306.913Z"
            stroke="url(#paint0_linear_332_1047)" stroke-opacity="0.5" stroke-width="3.70702"
            stroke-miterlimit="10" />
    </g>
    <defs>
        <linearGradient id="paint0_linear_332_1047" x1="141.441" y1="687.056" x2="696.003"
            y2="20.7137" gradientUnits="userSpaceOnUse">
            <stop stop-color="#A0ADFF" stop-opacity="0.1" />
            <stop offset="1" stop-color="#4C52D8" stop-opacity="0.75" />
        </linearGradient>
    </defs>
</svg>