<svg width="313" height="679" viewBox="0 0 313 679" fill="none" xmlns="http://www.w3.org/2000/svg">
    <mask id="mask0_332_1046" style="mask-type:alpha" maskUnits="userSpaceOnUse" x="0" y="0"
        width="313" height="679">
        <rect width="313" height="679" fill="#D9D9D9" />
    </mask>
    <g mask="url(#mask0_332_1046)">
        <path
            d="M-308 367.186V161.738C-308.008 135.436 -297.926 110.133 -279.832 91.0394C-261.737 71.9454 -237.007 60.514 -210.735 59.0994C-184.462 57.6847 -158.647 66.3946 -138.605 83.4352C-118.564 100.476 -105.822 124.55 -103.003 150.7C-102.675 153.459 -102.543 156.219 -102.477 159.044L-102.477 365.413C-102.445 366.003 -102.445 366.596 -102.477 367.186C-102.824 380.895 -100.423 394.534 -95.4145 407.301C-90.4062 420.067 -82.8924 431.702 -73.3158 441.52C-63.7392 451.339 -52.2936 459.142 -39.6534 464.469C-27.0131 469.797 -13.4341 472.542 0.283813 472.542C14.0017 472.542 27.5808 469.797 40.221 464.469C52.8612 459.142 64.3069 451.339 73.8835 441.52C83.46 431.702 90.9738 420.067 95.9822 407.301C100.99 394.534 103.392 380.895 103.045 367.186L103.045 -43.6452C102.698 -57.3537 105.1 -70.993 110.108 -83.7593C115.116 -96.5257 122.63 -108.161 132.207 -117.979C141.783 -127.797 153.229 -135.6 165.869 -140.928C178.509 -146.256 192.089 -149 205.806 -149C219.524 -149 233.103 -146.256 245.744 -140.928C258.384 -135.6 269.829 -127.797 279.406 -117.979C288.983 -108.161 296.496 -96.5257 301.505 -83.7593C306.513 -70.993 308.915 -57.3537 308.568 -43.6452L308.568 367.186C308.52 441.055 281.934 512.449 233.651 568.369C185.367 624.288 118.599 661.013 45.5043 671.855C-27.5905 682.697 -102.15 666.935 -164.596 627.44C-227.042 587.945 -273.221 527.344 -294.724 456.672C-303.52 427.657 -307.993 397.505 -308 367.186Z"
            stroke="url(#paint0_linear_332_1046)" stroke-opacity="0.5" stroke-width="3.70702"
            stroke-miterlimit="10" />
    </g>
    <defs>
        <linearGradient id="paint0_linear_332_1046" x1="172.677" y1="-14.312" x2="-383.863"
            y2="654.406" gradientUnits="userSpaceOnUse">
            <stop stop-color="#A0ADFF" stop-opacity="0.1" />
            <stop offset="1" stop-color="#4C52D8" stop-opacity="0.75" />
        </linearGradient>
    </defs>
</svg>